<svg id="Calque_1" data-name="Calque 1" xmlns="http://www.w3.org/2000/svg" viewBox="0 0 512 640"><title>noun_avatar_1855111</title><path d="M336.2,310.2a130.91,130.91,0,0,0,28.4-80.9V216.8l16.9-13.5a.1.1,0,0,0,.1-.1,35,35,0,0,0,10.3-40.3c-4.4-10.9-14.9-18.8-27-21.1V95.7a41.62,41.62,0,0,0-35.6-41,37.7,37.7,0,0,0-5.8-.4H309.2v-.7a40.58,40.58,0,0,0-1.8-12,41.62,41.62,0,0,0-39.6-29.4H121.5V63.8a41.35,41.35,0,0,0,24.6,37.9v40.1a34.89,34.89,0,0,0-15.7,61.4L146.1,216v13.7a131.23,131.23,0,0,0,28.2,80.5,92.78,92.78,0,0,0-84.4,92.4v88a8,8,0,0,0,8,8H414.2a8,8,0,0,0,8-8v-88C422.2,353.8,384.2,313.7,336.2,310.2Zm28.4-151.9c5.3,1.6,10.3,5.2,12.4,10.6a19.22,19.22,0,0,1-5.6,22l-6.8,5.5ZM146.1,195.4l-5.5-4.5a19,19,0,0,1-5.6-22,18.47,18.47,0,0,1,11.2-10.5l-.1,37Zm202.5-47.8L315.1,225a86.46,86.46,0,0,0-57.9-22.2h-3.7A86.65,86.65,0,0,0,195.6,225l-32.1-74.2A68.36,68.36,0,0,0,202,105.3h49.3a84.56,84.56,0,0,0,73.4,42.1h23.8v.2ZM162.1,133.5V105.2h23.2A52,52,0,0,1,162.1,133.5ZM137.5,63.9V28.3H267.8a25.5,25.5,0,0,1,24.3,18.1,26,26,0,0,1,1.1,7.4V70.5h30.3c1.2,0,2.4.1,3.6.2a25.51,25.51,0,0,1,21.8,25.2v35.6H324.8a68.68,68.68,0,0,1-61.5-37.7l-2.2-4.4H161.7A25.56,25.56,0,0,1,137.5,63.9ZM248,482.7H172.7V418h-16v64.8H105.8v-80A76.88,76.88,0,0,1,182.6,326h6c1.6,1.5,3.2,3,4.9,4.4L248,376.7Zm-.6-181v53.4L227,337.8V285.6H211v38.7l-7.1-6A129.39,129.39,0,0,1,190.5,305V265.4h-16v15.7A114,114,0,0,1,162.1,230V214.6a8.56,8.56,0,0,0,0-3.9V187.8l23.6,54.6a8,8,0,0,0,6.1,4.7,4.87,4.87,0,0,0,1.2.1,8.15,8.15,0,0,0,6.1-2.8l.7-.8a70.51,70.51,0,0,1,53.7-24.7h3.7a70.24,70.24,0,0,1,54.3,25.5,8.07,8.07,0,0,0,7.3,2.8,8,8,0,0,0,6.2-4.7L348.6,188v24a6,6,0,0,0,0,1.9v15.5a114.48,114.48,0,0,1-12.3,51.1V263.3h-16v41.1a121.59,121.59,0,0,1-14,13.8l-6.5,5.4V285.5h-16v51.4L263.4,354V301.7Zm158.8,181H355V418H339v64.8H264V374.4l52.5-44q2.55-2.1,5.1-4.5h7.8a76.88,76.88,0,0,1,76.8,76.8Z"/><rect x="280.7" y="398.2" width="14.4" height="16"/><rect x="280.7" y="438.7" width="14.4" height="16"/><path d="M212.4,149.1A16.9,16.9,0,1,0,229.3,166,16.94,16.94,0,0,0,212.4,149.1Z"/><path d="M299.6,149.1A16.9,16.9,0,1,0,316.5,166,16.94,16.94,0,0,0,299.6,149.1Z"/><path d="M282.6,245.4l-10.9-11.7L265,240a31.3,31.3,0,0,1-28.3,7.7l-3.5,15.6a46.82,46.82,0,0,0,42.7-11.6Z"/></svg>